<svg width="32" height="32" fill="none" xmlns="http://www.w3.org/2000/svg"><path fill-rule="evenodd" clip-rule="evenodd" d="M9.232 8.348A67.4 67.4 0 0 1 16 8c2.863 0 5.325.2 6.767.348 1.241.128 2.28 1.053 2.446 2.35.14 1.096.287 2.837.287 5.302 0 2.465-.148 4.206-.287 5.302-.165 1.297-1.205 2.222-2.446 2.35A67.388 67.388 0 0 1 16 24c-2.863 0-5.325-.2-6.768-.348-1.24-.128-2.28-1.053-2.445-2.35C6.647 20.206 6.5 18.465 6.5 16c0-2.465.148-4.206.287-5.302.165-1.297 1.205-2.222 2.445-2.35zM14 13.5a1.5 1.5 0 1 1-3 0 1.5 1.5 0 0 1 3 0zm-4 5.81c0 .39.297.714.686.741 1.057.073 3.186.199 5.314.199 1.983 0 3.967-.11 5.083-.183A.984.984 0 0 0 22 19.08V19a1 1 0 0 0-.2-.6l-3.25-4.333a1 1 0 0 0-1.6 0L14 18l-.793-.793a1 1 0 0 0-1.414 0L10.22 18.78a.75.75 0 0 0-.22.53z" fill="#fff"/></svg>